<svg xmlns="http://www.w3.org/2000/svg" width="20" height="20" viewBox="0 0 20 20">
    <g fill="none" fill-rule="evenodd">
        <circle cx="10" cy="10" r="10" fill="#D40F00"/>
        <path fill="#FFF" fill-rule="nonzero" d="M11.303 4v4.862c0 .516-.025 1.021-.076 1.517a32.278 32.278 0 0 1-.204 1.577h-1.42a32.278 32.278 0 0 1-.204-1.577 14.822 14.822 0 0 1-.076-1.517V4h1.98zM9 15.135c0-.176.033-.343.098-.502.065-.158.156-.294.272-.407a1.339 1.339 0 0 1 .922-.375 1.286 1.286 0 0 1 .91.374 1.286 1.286 0 0 1 .373.91c0 .181-.033.35-.101.506a1.23 1.23 0 0 1-.68.671 1.307 1.307 0 0 1-.502.098 1.33 1.33 0 0 1-.922-.366 1.208 1.208 0 0 1-.272-.403A1.298 1.298 0 0 1 9 15.135z"/>
    </g>
</svg>
