<svg xmlns="http://www.w3.org/2000/svg" width="126" height="28" viewBox="0 0 126 28">
    <path fill="#FFF" fill-rule="nonzero" d="M61.386.498H37.901v6.36c-.521-2.065-1.728-3.702-3.528-4.889C32.456.69 30.16.5 27.13.5H.234v6.216h5.303v20.573h7.008V6.715h5.114v20.573h6.984v-8.613l5.469 8.613h21.212l1.99-5.552-15.39-5.03v9.467l-6.155-8.068c3.196-.83 5.374-3.013 6.155-6.027v4.627h16.241V10.75h-9.21V6.431h9.21V.593l.45 1.329 4.735 14.237h.024l6.203-1.922L61.387.498zM25.992 12.885H24.62v-6.36h1.942c3.101 0 4.592.902 4.592 3.133-.023 2.396-1.704 3.227-5.16 3.227zm92.616 5.22c4.072-1.044 6.463-4.295 6.463-8.637 0-3.322-1.325-5.837-3.859-7.499C119.272.69 116.998.5 113.968.5h-9.494v9.325c-.686-2.16-1.988-4.177-3.811-5.861C97.893 1.4 94.27 0 90.459 0c-4.049 0-7.6 1.329-10.417 3.915a13.497 13.497 0 0 0-3.267 4.556L79.403.498h-7.245L68.3 13.36l7.529-2.349-14.181 9.492 5.28 6.762h3.598l5.469-16.586c-.214.95-.332 1.922-.332 2.895 0 3.963 1.373 7.26 4.072 9.942 2.817 2.8 6.44 4.224 10.654 4.224 3.977 0 7.765-1.471 10.535-4.176a13.268 13.268 0 0 0 3.528-5.719v9.42h7.007v-8.613l5.47 8.613h8.64l-6.96-9.159zM90.412 21.19c-3.93 0-7.53-3.227-7.53-7.451 0-3.915 3.34-7.047 7.6-7.047 4.025 0 7.363 3.132 7.363 7.047 0 4.342-3.338 7.45-7.433 7.45zm22.42-8.305h-1.374v-6.36h1.942c3.101 0 4.593.902 4.593 3.133 0 2.396-1.705 3.227-5.161 3.227z"/>
</svg>
