<svg xmlns="http://www.w3.org/2000/svg" width="26" height="21" viewBox="0 0 26 21">
    <path fill="#FFF" fill-rule="evenodd" d="M23.44 5.483c.011.223.016.446.016.672 0 6.853-5.217 14.756-14.756 14.756-2.93 0-5.654-.86-7.95-2.33.408.045.818.07 1.237.07a10.4 10.4 0 0 0 6.44-2.218 5.195 5.195 0 0 1-4.843-3.603 5.167 5.167 0 0 0 2.34-.088 5.192 5.192 0 0 1-4.16-5.086V7.59c.702.389 1.5.622 2.351.65A5.184 5.184 0 0 1 1.81 3.923c0-.951.255-1.842.701-2.608A14.716 14.716 0 0 0 13.2 6.735 5.185 5.185 0 0 1 18.251.368c1.49 0 2.839.629 3.783 1.637A10.357 10.357 0 0 0 25.33.745a5.195 5.195 0 0 1-2.28 2.87 10.34 10.34 0 0 0 2.979-.816 10.53 10.53 0 0 1-2.588 2.684z"/>
</svg>
